<?xml version="1.0" encoding="UTF-8" standalone="no"?>
<!DOCTYPE svg PUBLIC "-//W3C//DTD SVG 1.1//EN" "http://www.w3.org/Graphics/SVG/1.1/DTD/svg11.dtd">
<svg width="100%" height="100%" viewBox="0 0 1000 1000" version="1.1" xmlns="http://www.w3.org/2000/svg" xmlns:xlink="http://www.w3.org/1999/xlink" xml:space="preserve" xmlns:serif="http://www.serif.com/" style="fill-rule:evenodd;clip-rule:evenodd;stroke-linejoin:round;stroke-miterlimit:2;">
    <g transform="matrix(1.8425,0,0,1.8425,-421.25,-611.03)">
        <path d="M457.861,511.923C448.694,506.33 440.028,501.302 431.38,496.388C392.154,474.104 367.232,461.967 367.232,461.967C364.951,459.686 361.247,459.686 358.965,461.967C356.684,464.248 356.684,467.952 358.965,470.233C358.965,470.233 371.102,495.155 393.387,534.381C398.571,543.507 403.884,552.652 409.856,562.389C405.393,563.096 400.957,563.815 396.54,564.538C373.885,568.243 353.649,572.18 334.465,576.136C277.6,587.863 241.35,597.156 241.35,597.156C238.124,597.156 235.505,599.775 235.505,603.001C235.505,606.227 238.124,608.847 241.35,608.847C241.35,608.847 277.6,618.14 334.464,629.866C353.648,633.823 373.885,637.759 396.54,641.465C400.957,642.188 405.393,642.907 409.856,643.614C403.884,653.35 398.572,662.496 393.387,671.622C371.102,710.848 358.965,735.77 358.965,735.77C356.684,738.051 356.684,741.755 358.965,744.036C361.247,746.317 364.951,746.317 367.232,744.036C367.232,744.036 392.153,731.899 431.379,709.615C440.506,704.43 449.651,699.118 459.388,693.146C460.094,697.608 460.814,702.045 461.536,706.461C465.242,729.117 469.179,749.353 473.135,768.537C484.862,825.401 494.155,861.651 494.155,861.651C494.155,864.877 496.774,867.496 500,867.496C503.226,867.496 505.845,864.877 505.845,861.651C505.845,861.651 515.138,825.401 526.865,768.537C530.821,749.353 534.758,729.117 538.464,706.461C539.094,702.61 539.722,698.743 540.34,694.857C558.395,705.712 574.498,714.15 589.098,721.993C616.796,736.874 632.768,744.036 632.768,744.036C635.049,746.317 638.753,746.317 641.035,744.036C643.316,741.755 643.316,738.051 641.035,735.77C641.035,735.77 633.873,719.797 618.992,692.099C611.373,677.917 603.192,662.315 592.78,644.884C596.359,644.341 599.919,643.776 603.46,643.192C639.639,637.223 670.368,630.046 696.573,624.14C735.79,615.301 758.65,608.847 758.65,608.847C761.876,608.847 764.495,606.227 764.495,603.001C764.495,599.775 761.876,597.156 758.65,597.156C758.65,597.156 735.79,590.702 696.574,581.863C670.368,575.956 639.639,568.78 603.46,562.811C599.919,562.227 596.359,561.662 592.78,561.119C603.191,543.688 611.372,528.086 618.992,513.904C633.873,486.206 641.035,470.233 641.035,470.233C643.316,467.952 643.316,464.248 641.035,461.967C638.753,459.686 635.049,459.686 632.768,461.967C632.768,461.967 616.796,469.128 589.098,484.009C574.915,491.629 559.313,499.81 541.882,510.222C541.339,506.642 540.774,503.082 540.19,499.542C534.222,463.362 527.045,432.634 521.138,406.428C512.299,367.212 505.845,344.352 505.845,344.352C505.845,341.126 503.226,338.507 500,338.507C496.774,338.507 494.155,341.126 494.155,344.352C494.155,344.352 487.701,367.212 478.862,406.428C472.955,432.633 465.778,463.362 459.81,499.542C459.133,503.641 458.483,507.767 457.861,511.923ZM500,559.643C523.93,559.643 543.359,579.071 543.359,603.001C543.359,626.932 523.93,646.36 500,646.36C476.07,646.36 456.641,626.932 456.641,603.001C456.641,579.071 476.07,559.643 500,559.643Z" style="fill:white;"/>
    </g>
</svg>
