<?xml version="1.0" encoding="UTF-8" standalone="no"?>
<!DOCTYPE svg PUBLIC "-//W3C//DTD SVG 1.1//EN" "http://www.w3.org/Graphics/SVG/1.1/DTD/svg11.dtd">
<svg width="100%" height="100%" viewBox="0 0 200 200" version="1.1" xmlns="http://www.w3.org/2000/svg" xmlns:xlink="http://www.w3.org/1999/xlink" xml:space="preserve" xmlns:serif="http://www.serif.com/" style="fill-rule:evenodd;clip-rule:evenodd;stroke-linejoin:round;stroke-miterlimit:2;">
    <circle cx="100" cy="100" r="100"/>
    <clipPath id="_clip1">
        <circle cx="100" cy="100" r="100"/>
    </clipPath>
    <g clip-path="url(#_clip1)">
        <g>
            <path d="M122.676,39.514C147.149,48.709 164.583,72.334 164.583,100C164.583,127.666 147.149,151.291 122.676,160.486C117.294,162.507 114.566,168.518 116.588,173.9C118.609,179.282 124.62,182.01 130.002,179.988C162.366,167.83 185.417,136.585 185.417,100C185.417,63.415 162.366,32.17 130.002,20.012C124.62,17.99 118.609,20.718 116.588,26.1C114.566,31.482 117.294,37.493 122.676,39.514Z" style="fill:rgb(251,204,28);"/>
            <path d="M77.324,160.486C52.851,151.291 35.417,127.666 35.417,100C35.417,72.334 52.851,48.709 77.324,39.514C82.706,37.493 85.434,31.482 83.412,26.1C81.391,20.718 75.38,17.99 69.998,20.012C37.634,32.17 14.583,63.415 14.583,100C14.583,136.585 37.634,167.83 69.998,179.988C75.38,182.01 81.391,179.282 83.412,173.9C85.434,168.518 82.706,162.507 77.324,160.486Z" style="fill:rgb(251,204,28);"/>
        </g>
        <g transform="matrix(2.01771,0,0,2.01771,-98.7419,-45.2766)">
            <path d="M88.01,90.748L88.01,74.898L98.96,74.898L98.96,67.404L88.01,67.404L88.01,60.748L99.91,60.748L99.91,53.254L82.2,53.254C80.552,53.254 79.216,54.59 79.216,56.237L79.216,87.761C79.216,89.41 80.554,90.748 82.203,90.748L88.01,90.748Z" style="fill:white;fill-rule:nonzero;"/>
            <g transform="matrix(1,0,0,1,-1.42886,0)">
                <path d="M111.266,90.748L116.24,90.748C117.028,90.748 117.783,90.435 118.34,89.878C118.897,89.321 119.21,88.565 119.21,87.778C119.21,80.763 119.21,63.232 119.21,56.22C119.21,55.434 118.898,54.679 118.341,54.123C117.785,53.566 117.03,53.254 116.244,53.254C114.641,53.254 112.987,53.254 112.987,53.254C112.088,57.704 109.592,57.944 105.542,57.894L105.542,65.448L111.266,65.448L111.266,90.748Z" style="fill:white;fill-rule:nonzero;"/>
            </g>
        </g>
    </g>
</svg>
